<?xml version="1.0" encoding="UTF-8"?>
<svg version="1.1" xmlns="http://www.w3.org/2000/svg" xmlns:xlink="http://www.w3.org/1999/xlink" x="0px" y="0px" viewBox="0 0 200 140" xml:space="preserve">
<g id="Ebene_1_Kopie_Kopie">
	<g>
		<g>
			<g>
				<path class="st9" d="M148.4,73.6c-0.3,0-0.5,0-0.7-0.1c-0.7-0.2-1.4-0.7-1.7-1.3c-0.4-0.7-0.5-1.4-0.3-2.2      c0.3-1.3,1.5-2.1,2.8-2.1c0.3,0,0.5,0,0.7,0.1c1.5,0.4,2.4,2,2,3.5C150.8,72.7,149.7,73.6,148.4,73.6L148.4,73.6z"/>
				<path class="st9" d="M147.7,73.5c1.5,0.4,3.1-0.5,3.5-2c0.4-1.5-0.5-3.1-2-3.5c-1.5-0.4-3.1,0.5-3.5,2      C145.3,71.5,146.2,73.1,147.7,73.5z"/>
				<path class="st9" d="M144.4,60.4c-1.3,0-2.4-0.9-2.8-2.1c-0.4-1.5,0.5-3.1,2-3.5c0.2-0.1,0.5-0.1,0.7-0.1c1.3,0,2.4,0.9,2.8,2.1      c0.4,1.5-0.5,3.1-2,3.5C144.9,60.4,144.7,60.4,144.4,60.4C144.4,60.4,144.4,60.4,144.4,60.4z"/>
				<path class="st9" d="M145.2,60.3c1.5-0.4,2.4-2,2-3.5c-0.4-1.5-2-2.4-3.5-2c-1.5,0.4-2.4,2-2,3.5      C142.1,59.8,143.6,60.7,145.2,60.3z"/>
				<path class="st9" d="M134.4,51c-0.8,0-1.5-0.3-2-0.8c-0.5-0.5-0.8-1.3-0.8-2c0-0.8,0.3-1.5,0.8-2c0.5-0.5,1.3-0.8,2-0.8      c0.8,0,1.5,0.3,2,0.8c0.5,0.5,0.8,1.3,0.8,2c0,0.8-0.3,1.5-0.8,2C135.9,50.7,135.1,51,134.4,51L134.4,51z"/>
				<path class="st9" d="M132.4,46.1c-1.1,1.1-1.1,2.9,0,4c1.1,1.1,2.9,1.1,4,0c1.1-1.1,1.1-2.9,0-4C135.3,45,133.5,45,132.4,46.1z"/>
				<path class="st9" d="M121,47.8c-0.2,0-0.5,0-0.7-0.1c-1.5-0.4-2.4-2-2-3.5c0.3-1.3,1.5-2.1,2.8-2.1c0.3,0,0.5,0,0.7,0.1      c0.7,0.2,1.4,0.7,1.7,1.3c0.4,0.7,0.5,1.4,0.3,2.2C123.4,47,122.3,47.8,121,47.8C121,47.8,121,47.8,121,47.8z"/>
				<path class="st9" d="M121.7,42.2c-1.5-0.4-3.1,0.5-3.5,2c-0.4,1.5,0.5,3.1,2,3.5c1.5,0.4,3.1-0.5,3.5-2      C124.1,44.2,123.2,42.6,121.7,42.2z"/>
				<path class="st9" d="M107.8,51.8c-1.3,0-2.4-0.9-2.8-2.1c-0.4-1.5,0.5-3.1,2-3.5c0.2-0.1,0.5-0.1,0.7-0.1c1.3,0,2.4,0.9,2.8,2.1      c0.4,1.5-0.5,3.1-2,3.5C108.3,51.8,108,51.8,107.8,51.8z"/>
				<path class="st9" d="M108.5,51.7c1.5-0.4,2.4-2,2-3.5c-0.4-1.5-2-2.4-3.5-2c-1.5,0.4-2.4,2-2,3.5      C105.5,51.2,107,52.1,108.5,51.7z"/>
				<path class="st9" d="M98.3,61.9c-0.8,0-1.5-0.3-2-0.8c-0.5-0.5-0.8-1.3-0.8-2c0-0.8,0.3-1.5,0.8-2c0.5-0.5,1.3-0.8,2-0.8      c0.8,0,1.5,0.3,2,0.8c1.1,1.1,1.1,2.9,0,4.1C99.8,61.6,99.1,61.9,98.3,61.9z"/>
				<path class="st9" d="M96.3,57c-1.1,1.1-1.1,2.9,0,4c1.1,1.1,2.9,1.1,4,0c1.1-1.1,1.1-2.9,0-4C99.2,55.9,97.5,55.9,96.3,57z"/>
				<path class="st9" d="M95.2,75.3c-0.3,0-0.5,0-0.7-0.1c-1.5-0.4-2.4-2-2-3.5c0.3-1.3,1.5-2.1,2.8-2.1c0.3,0,0.5,0,0.7,0.1      c1.5,0.4,2.4,2,2,3.5C97.6,74.4,96.5,75.3,95.2,75.3L95.2,75.3z"/>
				<path class="st9" d="M95.9,69.7c-1.5-0.4-3.1,0.5-3.5,2c-0.4,1.5,0.5,3.1,2,3.5c1.5,0.4,3.1-0.5,3.5-2      C98.3,71.6,97.4,70.1,95.9,69.7z"/>
				<path class="st9" d="M99.2,88.5c-1.3,0-2.4-0.9-2.8-2.1c-0.4-1.5,0.5-3.1,2-3.5c0.2-0.1,0.5-0.1,0.7-0.1c1.3,0,2.4,0.9,2.8,2.1      c0.4,1.5-0.5,3.1-2,3.5C99.7,88.4,99.4,88.5,99.2,88.5L99.2,88.5z"/>
				<path class="st9" d="M98.5,82.9c-1.5,0.4-2.4,2-2,3.5c0.4,1.5,2,2.4,3.5,2c1.5-0.4,2.4-2,2-3.5C101.5,83.3,100,82.5,98.5,82.9z"/>
				<path class="st9" d="M109.2,97.9c-0.8,0-1.5-0.3-2-0.8c-0.5-0.5-0.8-1.3-0.8-2c0-0.8,0.3-1.5,0.8-2c0.5-0.5,1.3-0.8,2-0.8      c0.8,0,1.5,0.3,2,0.8c1.1,1.1,1.1,2.9,0,4.1C110.7,97.6,110,97.9,109.2,97.9z"/>
				<path class="st9" d="M111.2,97c1.1-1.1,1.1-2.9,0-4c-1.1-1.1-2.9-1.1-4,0c-1.1,1.1-1.1,2.9,0,4C108.3,98.1,110.1,98.1,111.2,97z      "/>
				<path class="st9" d="M122.6,101c-0.2,0-0.5,0-0.7-0.1c-0.7-0.2-1.4-0.7-1.7-1.3c-0.4-0.7-0.5-1.4-0.3-2.2      c0.3-1.3,1.5-2.1,2.8-2.1c0.3,0,0.5,0,0.7,0.1c0.7,0.2,1.4,0.7,1.7,1.3c0.4,0.7,0.5,1.4,0.3,2.2      C125.1,100.2,123.9,101,122.6,101L122.6,101z"/>
				<path class="st9" d="M121.9,100.9c1.5,0.4,3.1-0.5,3.5-2c0.4-1.5-0.5-3.1-2-3.5c-1.5-0.4-3.1,0.5-3.5,2      C119.5,98.9,120.4,100.5,121.9,100.9z"/>
				<path class="st9" d="M135.8,97.1c-1.3,0-2.4-0.9-2.8-2.1c-0.2-0.7-0.1-1.5,0.3-2.2c0.4-0.7,1-1.1,1.7-1.3      c0.2-0.1,0.5-0.1,0.8-0.1c1.3,0,2.4,0.9,2.8,2.1c0.4,1.5-0.5,3.1-2,3.5C136.3,97,136.1,97.1,135.8,97.1L135.8,97.1z"/>
				<path class="st9" d="M135.1,91.5c-1.5,0.4-2.4,2-2,3.5c0.4,1.5,2,2.4,3.5,2c1.5-0.4,2.4-2,2-3.5C138.2,91.9,136.6,91,135.1,91.5      z"/>
				<path class="st9" d="M145.3,87c-0.8,0-1.5-0.3-2-0.8c-1.1-1.1-1.1-2.9,0-4.1c0.5-0.5,1.3-0.8,2-0.8c0.8,0,1.5,0.3,2,0.8      c1.1,1.1,1.1,2.9,0,4.1C146.8,86.7,146,87,145.3,87z"/>
				<path class="st9" d="M147.3,86.1c1.1-1.1,1.1-2.9,0-4c-1.1-1.1-2.9-1.1-4,0c-1.1,1.1-1.1,2.9,0,4      C144.4,87.2,146.2,87.2,147.3,86.1z"/>
				<g>
					<path class="st9" d="M161.8,75c-0.3,0-0.6,0-0.9-0.1c-1.8-0.5-2.9-2.3-2.4-4.1c0.4-1.5,1.7-2.5,3.2-2.5c0.3,0,0.6,0,0.9,0.1       c1.8,0.5,2.9,2.3,2.4,4.1C164.7,74,163.3,75,161.8,75C161.8,75,161.8,75,161.8,75z"/>
					<path class="st9" d="M162.7,68.5c-1.8-0.5-3.6,0.6-4.1,2.3c-0.5,1.8,0.6,3.6,2.3,4.1c1.8,0.5,3.6-0.6,4.1-2.3       C165.5,70.7,164.4,68.9,162.7,68.5z"/>
					<path class="st9" d="M156.5,55c-1.5,0-2.9-1-3.2-2.5c-0.2-0.9-0.1-1.8,0.3-2.5c0.4-0.8,1.2-1.3,2-1.6c0.3-0.1,0.6-0.1,0.9-0.1       c1.5,0,2.8,1,3.2,2.5c0.2,0.9,0.1,1.8-0.3,2.5c-0.4,0.8-1.2,1.3-2,1.6C157.1,55,156.8,55,156.5,55C156.5,55,156.5,55,156.5,55z       "/>
					<path class="st9" d="M157.3,54.8c1.8-0.5,2.8-2.3,2.3-4.1c-0.5-1.8-2.3-2.8-4.1-2.3c-1.8,0.5-2.8,2.3-2.3,4.1       C153.8,54.3,155.6,55.3,157.3,54.8z"/>
					<path class="st9" d="M141.9,40.3c-0.9,0-1.7-0.3-2.4-1c-0.6-0.6-1-1.5-1-2.4c0-0.9,0.3-1.7,1-2.4c0.6-0.6,1.5-1,2.4-1       c0.9,0,1.7,0.3,2.4,1c1.3,1.3,1.3,3.4,0,4.8C143.6,40,142.8,40.3,141.9,40.3C141.9,40.3,141.9,40.3,141.9,40.3z"/>
					<path class="st9" d="M139.5,39.3c1.3,1.3,3.4,1.3,4.7,0c1.3-1.3,1.3-3.4,0-4.7c-1.3-1.3-3.4-1.3-4.7,0       C138.2,35.9,138.2,38,139.5,39.3z"/>
					<path class="st9" d="M121.9,34.9c-0.3,0-0.6,0-0.9-0.1c-1.8-0.5-2.9-2.3-2.4-4.1c0.4-1.5,1.7-2.5,3.2-2.5c0.3,0,0.6,0,0.9,0.1       c1.8,0.5,2.9,2.3,2.4,4.1C124.8,33.9,123.4,34.9,121.9,34.9L121.9,34.9z"/>
					<path class="st9" d="M121,34.8c1.8,0.5,3.6-0.6,4.1-2.3c0.5-1.8-0.6-3.6-2.3-4.1c-1.8-0.5-3.6,0.6-4.1,2.3       C118.2,32.5,119.3,34.3,121,34.8z"/>
					<path class="st9" d="M101.9,40.2c-1.5,0-2.8-1-3.2-2.5c-0.5-1.8,0.6-3.6,2.4-4.1c0.3-0.1,0.6-0.1,0.9-0.1c1.5,0,2.8,1,3.2,2.5       c0.5,1.8-0.6,3.6-2.4,4.1C102.5,40.2,102.2,40.2,101.9,40.2z"/>
					<path class="st9" d="M101,33.7c-1.8,0.5-2.8,2.3-2.3,4.1c0.5,1.8,2.3,2.8,4.1,2.3c1.8-0.5,2.8-2.3,2.3-4.1       C104.6,34.3,102.8,33.2,101,33.7z"/>
					<path class="st9" d="M87.2,54.8c-0.9,0-1.7-0.3-2.4-1c-0.6-0.6-1-1.5-1-2.4s0.4-1.7,1-2.4c0.6-0.6,1.5-1,2.4-1       c0.9,0,1.7,0.3,2.4,1c0.6,0.6,1,1.5,1,2.4c0,0.9-0.3,1.7-1,2.4C89,54.5,88.1,54.8,87.2,54.8L87.2,54.8z"/>
					<path class="st9" d="M84.9,53.8c1.3,1.3,3.4,1.3,4.7,0c1.3-1.3,1.3-3.4,0-4.7c-1.3-1.3-3.4-1.3-4.7,0       C83.6,50.4,83.6,52.5,84.9,53.8z"/>
					<path class="st9" d="M81.8,74.8c-0.3,0-0.6,0-0.9-0.1c-1.8-0.5-2.9-2.3-2.4-4.1c0.4-1.5,1.7-2.5,3.2-2.5c0.3,0,0.6,0,0.9,0.1       c1.8,0.5,2.9,2.3,2.4,4.1C84.7,73.8,83.3,74.8,81.8,74.8L81.8,74.8z"/>
					<path class="st9" d="M80.9,74.7c1.8,0.5,3.6-0.6,4.1-2.3c0.5-1.8-0.6-3.6-2.3-4.1c-1.8-0.5-3.6,0.6-4.1,2.3       C78.1,72.4,79.2,74.2,80.9,74.7z"/>
					<path class="st9" d="M87.1,94.8c-1.5,0-2.9-1-3.2-2.5c-0.5-1.8,0.6-3.6,2.4-4.1c0.3-0.1,0.6-0.1,0.9-0.1c1.5,0,2.9,1,3.2,2.5       c0.5,1.8-0.6,3.6-2.4,4.1C87.7,94.8,87.4,94.8,87.1,94.8C87.1,94.8,87.1,94.8,87.1,94.8z"/>
					<path class="st9" d="M86.3,88.3c-1.8,0.5-2.8,2.3-2.3,4.1c0.5,1.8,2.3,2.8,4.1,2.3c1.8-0.5,2.8-2.3,2.3-4.1       C89.8,88.9,88,87.8,86.3,88.3z"/>
					<path class="st9" d="M101.7,109.5c-0.9,0-1.7-0.4-2.4-1c-0.6-0.6-1-1.5-1-2.4c0-0.9,0.3-1.7,1-2.4c0.6-0.6,1.5-1,2.4-1       c0.9,0,1.7,0.4,2.4,1c1.3,1.3,1.3,3.4,0,4.7C103.5,109.2,102.6,109.5,101.7,109.5L101.7,109.5z"/>
					<path class="st9" d="M104.1,103.8c-1.3-1.3-3.4-1.3-4.7,0c-1.3,1.3-1.3,3.4,0,4.7c1.3,1.3,3.4,1.3,4.7,0       C105.4,107.2,105.4,105.1,104.1,103.8z"/>
					<path class="st9" d="M121.7,114.9c-0.3,0-0.6,0-0.9-0.1c-0.9-0.2-1.6-0.8-2-1.6c-0.4-0.8-0.6-1.7-0.3-2.5       c0.4-1.5,1.7-2.5,3.2-2.5c0.3,0,0.6,0,0.9,0.1c0.9,0.2,1.6,0.8,2,1.6c0.4,0.8,0.6,1.7,0.3,2.5       C124.6,113.9,123.2,114.9,121.7,114.9L121.7,114.9z"/>
					<path class="st9" d="M122.6,108.4c-1.8-0.5-3.6,0.6-4.1,2.3c-0.5,1.8,0.6,3.6,2.3,4.1c1.8,0.5,3.6-0.6,4.1-2.3       C125.4,110.6,124.3,108.8,122.6,108.4z"/>
					<path class="st9" d="M141.7,109.6c-1.5,0-2.9-1-3.2-2.5c-0.2-0.9-0.1-1.8,0.3-2.6c0.4-0.8,1.2-1.3,2-1.6       c0.3-0.1,0.6-0.1,0.9-0.1c1.5,0,2.8,1,3.2,2.5c0.5,1.8-0.6,3.6-2.4,4.1C142.3,109.6,142,109.6,141.7,109.6       C141.7,109.6,141.7,109.6,141.7,109.6z"/>
					<path class="st9" d="M142.6,109.4c1.8-0.5,2.8-2.3,2.3-4.1c-0.5-1.8-2.3-2.8-4.1-2.3c-1.8,0.5-2.8,2.3-2.3,4.1       C139,108.9,140.8,109.9,142.6,109.4z"/>
					<path class="st9" d="M156.4,95c-0.9,0-1.7-0.3-2.4-1c-1.3-1.3-1.3-3.4,0-4.8c0.6-0.6,1.5-1,2.4-1c0.9,0,1.7,0.3,2.4,1       c1.3,1.3,1.3,3.4,0,4.7C158.1,94.7,157.3,95,156.4,95L156.4,95z"/>
					<path class="st9" d="M158.7,89.3c-1.3-1.3-3.4-1.3-4.7,0c-1.3,1.3-1.3,3.4,0,4.7c1.3,1.3,3.4,1.3,4.7,0       C160,92.7,160,90.6,158.7,89.3z"/>
				</g>
				<g>
					<path class="st9" d="M175.5,82.1c-0.4,0-0.7,0-1.1-0.1c-2.3-0.6-3.7-3-3.1-5.3c0.5-1.9,2.2-3.2,4.2-3.2c0.4,0,0.8,0.1,1.1,0.1       c1.1,0.3,2,1,2.6,2c0.6,1,0.7,2.2,0.4,3.3C179.2,80.7,177.4,82.1,175.5,82.1L175.5,82.1z"/>
					<path class="st9" d="M174.4,81.9c2.3,0.6,4.6-0.7,5.2-3c0.6-2.3-0.7-4.6-3-5.2c-2.3-0.6-4.6,0.7-5.2,3       C170.8,78.9,172.1,81.2,174.4,81.9z"/>
					<path class="st9" d="M171.4,54.4c-2,0-3.7-1.3-4.2-3.2c-0.6-2.3,0.8-4.7,3.1-5.3c0.4-0.1,0.7-0.1,1.1-0.1       c1.9,0,3.7,1.3,4.2,3.2c0.6,2.3-0.8,4.7-3,5.3C172.1,54.3,171.8,54.4,171.4,54.4L171.4,54.4z"/>
					<path class="st9" d="M175.5,49c-0.6-2.3-3-3.6-5.2-3c-2.3,0.6-3.6,3-3,5.2c0.6,2.3,2.9,3.6,5.2,3       C174.8,53.6,176.1,51.2,175.5,49z"/>
					<path class="st9" d="M154,32.5c-1.2,0-2.2-0.4-3.1-1.3c-0.8-0.8-1.3-1.9-1.3-3.1c0-1.2,0.4-2.2,1.3-3.1c0.8-0.8,1.9-1.3,3-1.3       s2.2,0.4,3.1,1.3c0.8,0.8,1.3,1.9,1.3,3.1c0,1.2-0.4,2.2-1.3,3.1C156.2,32,155.1,32.5,154,32.5z"/>
					<path class="st9" d="M157,25.1c-1.7-1.7-4.4-1.7-6,0c-1.7,1.7-1.7,4.4,0,6c1.7,1.7,4.4,1.7,6,0C158.7,29.5,158.7,26.8,157,25.1       z"/>
					<path class="st9" d="M128,22.2c-0.4,0-0.8,0-1.1-0.1c-2.3-0.6-3.7-3-3.1-5.3c0.5-1.9,2.2-3.2,4.2-3.2c0.4,0,0.8,0.1,1.1,0.1       c1.1,0.3,2,1,2.6,2c0.6,1,0.7,2.2,0.4,3.3C131.6,20.9,129.9,22.2,128,22.2L128,22.2z"/>
					<path class="st9" d="M126.9,22c2.3,0.6,4.6-0.7,5.2-3c0.6-2.3-0.7-4.6-3-5.2c-2.3-0.6-4.6,0.7-5.2,3S124.6,21.4,126.9,22z"/>
					<path class="st9" d="M100.3,26.3c-1.9,0-3.7-1.3-4.2-3.2c-0.6-2.3,0.8-4.7,3.1-5.3c0.4-0.1,0.7-0.1,1.1-0.1       c1.9,0,3.7,1.3,4.2,3.2c0.3,1.1,0.1,2.3-0.4,3.3s-1.5,1.7-2.6,2C101.1,26.2,100.7,26.3,100.3,26.3z"/>
					<path class="st9" d="M101.4,26.1c2.3-0.6,3.6-3,3-5.2c-0.6-2.3-3-3.6-5.2-3c-2.3,0.6-3.6,3-3,5.2       C96.8,25.4,99.1,26.7,101.4,26.1z"/>
					<path class="st9" d="M78.4,43.7c-1.2,0-2.2-0.4-3.1-1.3c-1.7-1.7-1.7-4.4,0-6.1c0.8-0.8,1.9-1.3,3.1-1.3c1.2,0,2.2,0.4,3.1,1.3       c0.8,0.8,1.3,1.9,1.3,3.1s-0.4,2.2-1.3,3.1C80.6,43.2,79.5,43.7,78.4,43.7L78.4,43.7z"/>
					<path class="st9" d="M81.4,36.4c-1.7-1.7-4.4-1.7-6,0c-1.7,1.7-1.7,4.4,0,6c1.7,1.7,4.4,1.7,6,0C83.1,40.7,83.1,38,81.4,36.4z"/>
					<path class="st9" d="M68.1,69.7c-0.4,0-0.8-0.1-1.1-0.1c-1.1-0.3-2-1-2.6-2c-0.6-1-0.7-2.2-0.4-3.3c0.5-1.9,2.2-3.2,4.2-3.2       c0.4,0,0.8,0,1.1,0.1c2.3,0.6,3.7,3,3.1,5.3C71.8,68.4,70.1,69.7,68.1,69.7L68.1,69.7z"/>
					<path class="st9" d="M69.2,61.3c-2.3-0.6-4.6,0.7-5.2,3c-0.6,2.3,0.7,4.6,3,5.2c2.3,0.6,4.6-0.7,5.2-3       C72.8,64.2,71.5,61.9,69.2,61.3z"/>
					<path class="st9" d="M72.2,97.4c-2,0-3.7-1.3-4.2-3.2c-0.6-2.3,0.8-4.7,3-5.3c0.4-0.1,0.7-0.1,1.1-0.1c2,0,3.7,1.3,4.2,3.2       c0.6,2.3-0.8,4.7-3.1,5.3C73,97.3,72.6,97.4,72.2,97.4L72.2,97.4z"/>
					<path class="st9" d="M71.1,88.9c-2.3,0.6-3.6,3-3,5.2c0.6,2.3,3,3.6,5.2,3c2.3-0.6,3.6-3,3-5.2C75.7,89.7,73.4,88.3,71.1,88.9z       "/>
					<path class="st9" d="M89.6,119.3c-1.2,0-2.2-0.4-3-1.3c-0.8-0.8-1.3-1.9-1.3-3c0-1.2,0.4-2.2,1.3-3.1c0.8-0.8,1.9-1.3,3.1-1.3       c1.2,0,2.2,0.4,3.1,1.3c1.7,1.7,1.7,4.4,0,6.1C91.9,118.8,90.8,119.3,89.6,119.3L89.6,119.3z"/>
					<path class="st9" d="M92.6,111.9c-1.7-1.7-4.4-1.7-6,0c-1.7,1.7-1.7,4.4,0,6c1.7,1.7,4.4,1.7,6,0       C94.3,116.3,94.3,113.6,92.6,111.9z"/>
					<path class="st9" d="M115.6,129.6c-0.4,0-0.8-0.1-1.1-0.1c-2.3-0.6-3.7-3-3.1-5.3c0.5-1.9,2.2-3.2,4.2-3.2       c0.4,0,0.8,0.1,1.1,0.1c1.1,0.3,2,1,2.6,2c0.6,1,0.7,2.2,0.4,3.3C119.3,128.3,117.6,129.6,115.6,129.6L115.6,129.6z"/>
					<path class="st9" d="M116.7,121.1c-2.3-0.6-4.6,0.7-5.2,3c-0.6,2.3,0.7,4.6,3,5.2c2.3,0.6,4.6-0.7,5.2-3       C120.4,124.1,119,121.7,116.7,121.1z"/>
					<path class="st9" d="M143.3,125.5c-1.9,0-3.7-1.3-4.2-3.2c-0.3-1.1-0.1-2.3,0.4-3.3c0.6-1,1.5-1.7,2.6-2       c0.4-0.1,0.7-0.1,1.1-0.1c1.9,0,3.7,1.3,4.2,3.2c0.6,2.3-0.8,4.7-3.1,5.3C144.1,125.4,143.7,125.5,143.3,125.5L143.3,125.5z"/>
					<path class="st9" d="M142.2,117c-2.3,0.6-3.6,2.9-3,5.2c0.6,2.3,3,3.6,5.2,3c2.3-0.6,3.6-3,3-5.2       C146.8,117.8,144.5,116.4,142.2,117z"/>
					<path class="st9" d="M165.2,108.1c-1.2,0-2.2-0.4-3.1-1.3c-0.8-0.8-1.3-1.9-1.3-3.1c0-1.2,0.4-2.2,1.3-3.1       c0.8-0.8,1.9-1.3,3.1-1.3c1.2,0,2.2,0.4,3.1,1.3c1.7,1.7,1.7,4.4,0,6.1C167.4,107.6,166.4,108.1,165.2,108.1z"/>
					<path class="st9" d="M168.2,106.8c1.7-1.7,1.7-4.4,0-6c-1.7-1.7-4.4-1.7-6,0c-1.7,1.7-1.7,4.4,0,6       C163.9,108.4,166.6,108.4,168.2,106.8z"/>
				</g>
				<g>
					<path class="st9" d="M188.3,94.4c-0.4,0-0.9-0.1-1.3-0.2c-1.3-0.3-2.4-1.2-3.1-2.3c-0.7-1.2-0.8-2.5-0.5-3.8       c0.6-2.2,2.6-3.7,4.8-3.7c0.4,0,0.9,0.1,1.3,0.2c2.7,0.7,4.3,3.5,3.6,6.1C192.6,92.9,190.6,94.4,188.3,94.4L188.3,94.4z"/>
					<path class="st9" d="M189.6,84.6c-2.7-0.7-5.4,0.9-6.1,3.5c-0.7,2.7,0.9,5.4,3.5,6.1c2.7,0.7,5.4-0.9,6.1-3.5       C193.9,88,192.3,85.3,189.6,84.6z"/>
					<path class="st9" d="M188.3,58.8c-2.3,0-4.3-1.5-4.9-3.7c-0.3-1.3-0.2-2.7,0.5-3.8c0.7-1.2,1.8-2,3.1-2.3       c0.4-0.1,0.9-0.2,1.3-0.2c2.3,0,4.3,1.5,4.8,3.7c0.3,1.3,0.2,2.6-0.5,3.8c-0.7,1.2-1.8,2-3.1,2.3       C189.2,58.7,188.8,58.8,188.3,58.8L188.3,58.8z"/>
					<path class="st9" d="M189.6,58.5c2.7-0.7,4.2-3.4,3.5-6.1c-0.7-2.7-3.4-4.2-6.1-3.5c-2.7,0.7-4.2,3.4-3.5,6.1       C184.2,57.7,187,59.3,189.6,58.5z"/>
					<path class="st9" d="M170.5,27.9c-1.3,0-2.6-0.5-3.6-1.5c-0.9-0.9-1.5-2.2-1.5-3.5c0-1.3,0.5-2.6,1.5-3.6       c0.9-0.9,2.2-1.5,3.6-1.5s2.6,0.5,3.6,1.5c2,2,2,5.1,0,7.1C173.1,27.4,171.9,27.9,170.5,27.9L170.5,27.9z"/>
					<path class="st9" d="M167,26.4c1.9,1.9,5.1,1.9,7,0c1.9-1.9,1.9-5.1,0-7c-1.9-1.9-5.1-1.9-7,0C165,21.3,165,24.4,167,26.4z"/>
					<path class="st9" d="M139.6,10.1c-0.4,0-0.9-0.1-1.3-0.2c-2.7-0.7-4.3-3.5-3.6-6.2c0.6-2.2,2.6-3.7,4.9-3.7       c0.4,0,0.9,0.1,1.3,0.2c2.7,0.7,4.3,3.5,3.6,6.2C143.9,8.5,141.9,10.1,139.6,10.1C139.6,10.1,139.6,10.1,139.6,10.1z"/>
					<path class="st9" d="M138.3,9.8c2.7,0.7,5.4-0.9,6.1-3.5c0.7-2.7-0.9-5.4-3.5-6.1c-2.7-0.7-5.4,0.9-6.1,3.5       C134.1,6.4,135.7,9.1,138.3,9.8z"/>
					<path class="st9" d="M104,10.1c-2.3,0-4.3-1.5-4.8-3.7C98.8,5,99,3.7,99.6,2.5c0.7-1.2,1.8-2,3.1-2.3c0.4-0.1,0.9-0.2,1.3-0.2       c2.3,0,4.3,1.5,4.8,3.7c0.7,2.7-0.9,5.4-3.6,6.2C104.8,10,104.4,10.1,104,10.1C104,10.1,104,10.1,104,10.1z"/>
					<path class="st9" d="M105.3,9.8c2.7-0.7,4.2-3.4,3.5-6.1c-0.7-2.7-3.4-4.2-6.1-3.5c-2.7,0.7-4.2,3.4-3.5,6.1       C99.9,9,102.6,10.5,105.3,9.8z"/>
					<path class="st9" d="M73.1,27.9c-1.3,0-2.6-0.5-3.6-1.5c-0.9-0.9-1.5-2.2-1.5-3.6c0-1.3,0.5-2.6,1.5-3.6       c0.9-0.9,2.2-1.5,3.6-1.5s2.6,0.5,3.6,1.5c0.9,0.9,1.5,2.2,1.5,3.6c0,1.3-0.5,2.6-1.5,3.6C75.7,27.4,74.4,27.9,73.1,27.9       L73.1,27.9z"/>
					<path class="st9" d="M69.6,26.4c1.9,1.9,5.1,1.9,7,0c1.9-1.9,1.9-5.1,0-7c-1.9-1.9-5.1-1.9-7,0C67.6,21.3,67.6,24.4,69.6,26.4z       "/>
					<path class="st9" d="M55.3,58.8c-0.4,0-0.9-0.1-1.3-0.2c-2.7-0.7-4.3-3.5-3.6-6.2c0.6-2.2,2.6-3.7,4.9-3.7       c0.4,0,0.9,0.1,1.3,0.2c1.3,0.3,2.4,1.2,3,2.3c0.7,1.2,0.8,2.5,0.5,3.8C59.5,57.2,57.5,58.8,55.3,58.8       C55.3,58.8,55.3,58.8,55.3,58.8z"/>
					<path class="st9" d="M56.6,48.9c-2.7-0.7-5.4,0.9-6.1,3.5c-0.7,2.7,0.9,5.4,3.5,6.1c2.7,0.7,5.4-0.9,6.1-3.5       C60.8,52.4,59.2,49.6,56.6,48.9z"/>
					<path class="st9" d="M55.3,94.4c-2.3,0-4.3-1.5-4.9-3.7c-0.3-1.3-0.2-2.6,0.5-3.8c0.7-1.2,1.8-2,3.1-2.3       c0.4-0.1,0.9-0.2,1.3-0.2c2.3,0,4.3,1.5,4.8,3.7c0.3,1.3,0.2,2.7-0.5,3.8c-0.7,1.2-1.8,2-3,2.3C56.1,94.4,55.7,94.4,55.3,94.4       L55.3,94.4z"/>
					<path class="st9" d="M54,84.6c-2.7,0.7-4.2,3.4-3.5,6.1c0.7,2.7,3.4,4.2,6.1,3.5c2.7-0.7,4.2-3.4,3.5-6.1       C59.4,85.4,56.6,83.9,54,84.6z"/>
					<path class="st9" d="M73.1,125.3c-1.3,0-2.6-0.5-3.6-1.5c-2-2-2-5.1,0-7.1c0.9-0.9,2.2-1.5,3.5-1.5c1.3,0,2.6,0.5,3.6,1.5       c0.9,0.9,1.5,2.2,1.5,3.6c0,1.3-0.5,2.6-1.5,3.6C75.7,124.8,74.4,125.3,73.1,125.3C73.1,125.3,73.1,125.3,73.1,125.3z"/>
					<path class="st9" d="M76.6,116.7c-1.9-1.9-5.1-1.9-7,0c-1.9,1.9-1.9,5.1,0,7c1.9,1.9,5.1,1.9,7,0       C78.6,121.8,78.6,118.7,76.6,116.7z"/>
					<path class="st9" d="M104,143.1c-0.4,0-0.9-0.1-1.3-0.2c-1.3-0.3-2.4-1.2-3.1-2.3s-0.9-2.5-0.5-3.8c0.6-2.2,2.6-3.7,4.8-3.7       c0.4,0,0.9,0.1,1.3,0.2c1.3,0.3,2.4,1.2,3.1,2.3c0.7,1.2,0.8,2.5,0.5,3.8C108.2,141.6,106.2,143.1,104,143.1L104,143.1z"/>
					<path class="st9" d="M105.3,133.3c-2.7-0.7-5.4,0.9-6.1,3.5c-0.7,2.7,0.9,5.4,3.5,6.1c2.7,0.7,5.4-0.9,6.1-3.5       C109.5,136.7,107.9,134,105.3,133.3z"/>
					<path class="st9" d="M139.6,143.1c-2.3,0-4.3-1.5-4.8-3.7c-0.3-1.3-0.2-2.7,0.5-3.8c0.7-1.2,1.8-2,3-2.3       c0.4-0.1,0.9-0.2,1.3-0.2c2.3,0,4.3,1.5,4.8,3.7c0.7,2.7-0.9,5.4-3.6,6.1C140.5,143.1,140.1,143.1,139.6,143.1L139.6,143.1z"/>
					<path class="st9" d="M138.3,133.3c-2.7,0.7-4.2,3.4-3.5,6.1c0.7,2.7,3.4,4.2,6.1,3.5c2.7-0.7,4.2-3.4,3.5-6.1       C143.7,134.2,141,132.6,138.3,133.3z"/>
					<path class="st9" d="M170.5,125.3c-1.3,0-2.6-0.5-3.5-1.5c-0.9-0.9-1.5-2.2-1.5-3.6c0-1.3,0.5-2.6,1.5-3.6s2.2-1.5,3.6-1.5       c1.3,0,2.6,0.5,3.5,1.5c0.9,0.9,1.5,2.2,1.5,3.5c0,1.3-0.5,2.6-1.5,3.6C173.1,124.8,171.8,125.3,170.5,125.3L170.5,125.3z"/>
					<path class="st9" d="M174,116.7c-1.9-1.9-5.1-1.9-7,0c-1.9,1.9-1.9,5.1,0,7c1.9,1.9,5.1,1.9,7,0C176,121.8,176,118.7,174,116.7       z"/>
				</g>
			</g>
			<g>
				<path class="st10" d="M116.6,62.8l5.3,0c-0.3,1.5-2.6,12.8-2.7,13c-0.1,0.6,0.1,1.1,0.4,1.4c0.2,0.3,0.6,0.4,1,0.4      c0.2,0,0.4,0,0.6-0.1c0.6-0.2,1.1-0.5,1.6-0.8c0.2-0.1,0.4-0.2,0.5-0.3c0.1,0,0.1-0.2,0.1-0.4l2.7-12.9c0-0.1,0-0.2,0.1-0.2      l5.3-0.1c-0.2,1.4-2,9.9-2.6,12.8c0,0.2-0.1,0.4-0.1,0.7c0,0.7,0.3,1.1,1,1.2c0.2,0.1,0.5,0.1,0.7,0.1l0,0c0.4,0,0.7-0.1,1-0.3      c0.5-0.3,1.1-0.6,1.6-1.1c0.5-0.4,1.1-0.8,1.6-1.4c0.3-0.4,0.7-0.5,1.3-0.5c0.2,0,0.4,0,0.6,0.1l-1,1.2      c-0.8,0.8-1.5,1.6-2.3,2.3c-0.8,0.8-1.8,1.5-2.8,2.2c-0.8,0.6-1.7,0.9-2.7,0.9c-0.6,0-1.3-0.1-2-0.4c-1.2-0.4-2-1.3-2.2-2.7      c-0.2,0.2-0.4,0.4-0.6,0.6c-1.4,1.2-2.8,2.4-4.9,2.5l-0.3,1.5l-0.3,1.3l-0.1,0.4c-0.1,0.3-0.1,0.6-0.2,0.9c0,0.6-0.3,0.9-0.9,1      c-1,0.2-2.9,0.7-4,0.9c-0.4,0.1-0.9,0.2-0.9,0.2L116.6,62.8z"/>
				<path class="st10" d="M136.6,74.5c-1.2,1.2-2.2,2.3-3.4,3.4c-0.9,0.8-1.8,1.5-2.8,2.2c-1.4,1-3,1-4.7,0.5      c-1.3-0.4-2-1.3-2.2-2.7c-1.7,1.4-3.2,2.9-5.6,3c-0.2,0.9-0.4,1.8-0.6,2.7c-0.1,0.4-0.2,0.8-0.2,1.2c0,0.6-0.3,0.8-0.9,0.9      c-1.4,0.3-4.5,1.1-4.7,1.1c1.7-8.1,3.4-16.1,5.1-24.2c1.7,0,3.4,0,5.2,0c-0.3,1.3-2.7,12.8-2.7,13c-0.1,1.4,0.7,2.2,2.1,1.8      c0.8-0.2,1.4-0.7,2.1-1.2c0.1-0.1,0.1-0.3,0.2-0.4c0.9-4.3,1.8-8.6,2.7-12.9c0-0.1,0.1-0.2,0.1-0.3c1.7,0,3.4,0,5.2,0      c-0.3,1.3-2,9.8-2.6,12.7c0,0.2-0.1,0.5-0.1,0.7c0,0.7,0.3,1.1,1,1.3c0.6,0.2,1.2,0.1,1.7-0.2c0.6-0.3,1.1-0.7,1.6-1.1      c0.6-0.4,1.1-0.9,1.6-1.4C135.3,74.5,135.9,74.4,136.6,74.5z"/>
			</g>
		</g>
	</g>
</g>
</svg>